<?xml version="1.0" standalone="no"?>
<!DOCTYPE svg PUBLIC "-//W3C//DTD SVG 20010904//EN"
 "http://www.w3.org/TR/2001/REC-SVG-20010904/DTD/svg10.dtd">
<svg version="1.0" xmlns="http://www.w3.org/2000/svg"
 width="350.000000pt" height="352.000000pt" viewBox="0 0 350.000000 352.000000"
 preserveAspectRatio="xMidYMid meet">

<g transform="translate(0.000000,352.000000) scale(0.100000,-0.100000)"
fill="#000000" stroke="none">
<path d="M225 3506 c-89 -28 -152 -75 -197 -145 l-28 -45 0 -1658 0 -1658
1640 0 1641 0 47 24 c59 30 116 92 148 160 l24 51 0 1643 0 1642 -1617 -1
c-1275 0 -1626 -3 -1658 -13z m1643 -1010 c49 -25 111 -84 132 -125 9 -20 23
-61 30 -92 11 -51 16 -58 51 -73 78 -35 122 -122 100 -198 -25 -82 -98 -128
-203 -128 l-48 0 0 180 c0 235 13 220 -192 220 -84 0 -160 -5 -168 -10 -12 -7
-16 -45 -20 -197 l-5 -188 -48 2 c-119 7 -207 102 -207 225 0 97 65 184 160
212 34 10 46 19 51 39 17 62 77 115 162 143 54 18 162 12 205 -10z m16 -273
c3 -10 5 -96 5 -191 0 -143 -3 -174 -15 -179 -8 -3 -13 -13 -12 -22 2 -11 -6
-17 -29 -19 -25 -2 -33 1 -33 12 0 13 -13 16 -65 16 -47 0 -64 -4 -63 -12 2
-8 -10 -14 -29 -16 -28 -3 -33 0 -33 17 0 12 -4 21 -10 21 -11 0 -14 372 -3
383 3 4 68 7 144 7 122 0 138 -2 143 -17z m-1170 -659 c9 -8 16 -24 16 -34 0
-10 3 -26 6 -35 5 -13 2 -16 -17 -13 -17 2 -25 11 -29 32 -3 17 -8 29 -12 28
-5 -1 -12 -2 -18 -2 -14 0 -13 -297 1 -306 16 -9 30 9 32 42 2 22 8 30 26 32
22 3 23 1 17 -28 -3 -18 -6 -38 -6 -46 0 -22 -30 -44 -60 -44 -52 0 -60 26
-60 195 0 120 3 155 16 173 18 26 65 30 88 6z m195 -3 c40 -40 36 -328 -5
-358 -20 -14 -62 -17 -81 -5 -24 15 -33 66 -33 187 0 121 9 172 33 187 22 14
67 8 86 -11z m141 -23 c7 -24 19 -70 28 -103 8 -33 19 -64 24 -70 4 -5 8 39 8
97 0 86 3 107 15 112 9 3 18 0 21 -7 2 -7 3 -94 2 -192 -3 -152 -5 -180 -18
-180 -10 0 -25 31 -46 95 l-32 95 -3 -95 c-4 -87 -6 -95 -24 -95 -19 0 -20 8
-23 180 -1 98 0 185 2 192 11 28 35 12 46 -29z m290 22 c0 -13 -7 -20 -20 -20
-19 0 -20 -8 -22 -172 -3 -165 -4 -173 -23 -173 -19 0 -20 8 -23 173 l-2 172
-25 0 c-18 0 -25 5 -25 20 0 18 7 20 70 20 63 0 70 -2 70 -20z m177 -3 c12
-12 16 -32 14 -77 -4 -105 -4 -113 4 -204 8 -83 7 -88 -11 -84 -16 3 -20 16
-27 83 -8 80 -18 105 -43 105 -11 0 -14 -21 -14 -96 0 -93 -1 -95 -22 -92 -23
3 -23 5 -26 173 -4 221 -5 216 59 212 28 -3 58 -11 66 -20z m202 4 c38 -38 43
-290 8 -345 -25 -37 -79 -37 -104 1 -26 40 -26 296 0 336 21 33 67 37 96 8z
m141 -157 l0 -164 30 0 c25 0 30 -4 30 -26 0 -24 -2 -25 -52 -22 l-53 3 -2
185 c-2 185 2 205 34 193 10 -4 13 -41 13 -169z m213 163 c10 -6 20 -29 24
-50 5 -33 3 -37 -16 -37 -12 0 -21 6 -21 16 0 27 -20 54 -35 48 -11 -4 -15
-21 -15 -58 0 -49 2 -54 45 -89 44 -38 45 -39 45 -100 0 -77 -18 -107 -63
-107 -43 0 -53 8 -66 55 -16 57 -14 65 14 65 22 0 25 -4 25 -35 0 -23 6 -38
16 -42 21 -8 34 14 34 61 0 33 -6 44 -47 82 -47 42 -48 45 -48 103 0 44 5 64
19 80 21 23 63 27 89 8z m195 7 c28 -8 24 -28 -6 -32 -22 -3 -22 -6 -22 -178
l0 -175 -22 3 c-23 3 -23 5 -26 176 l-2 172 -25 0 c-24 0 -33 18 -18 33 8 9
90 9 121 1z m188 -15 c16 -18 19 -40 22 -157 3 -117 0 -142 -15 -172 -15 -29
-24 -36 -55 -38 -55 -5 -71 26 -76 144 -6 123 4 200 29 225 25 25 71 24 95 -2z
m193 7 c7 -8 15 -30 18 -50 5 -32 3 -36 -16 -36 -15 0 -21 6 -21 24 0 13 -6
29 -14 35 -26 22 -36 -21 -36 -151 0 -94 4 -129 15 -144 13 -16 16 -17 25 -4
5 8 10 27 10 43 0 20 5 27 20 27 16 0 20 -7 20 -30 0 -50 -26 -90 -58 -90 -60
0 -72 33 -72 195 0 121 9 172 33 187 20 13 64 9 76 -6z m121 -66 l5 -75 24 78
c15 46 30 77 38 77 25 0 24 -25 -2 -109 l-26 -82 26 -85 c26 -84 27 -114 5
-114 -12 0 -23 24 -47 105 l-18 60 -5 -80 c-4 -62 -8 -80 -20 -80 -13 0 -15
29 -18 193 -2 181 -1 193 15 190 15 -3 19 -17 23 -78z m-1910 -476 c0 -32 -4
-44 -12 -42 -14 5 -23 51 -14 74 11 30 26 12 26 -32z m56 28 c1 -7 0 -8 -3 -2
-2 5 -9 8 -14 4 -5 -3 -9 0 -9 6 0 15 23 7 26 -8z m59 8 c-3 -5 -12 -7 -20 -3
-21 7 -19 13 6 13 11 0 18 -4 14 -10z m32 -57 c-2 -16 -4 -5 -4 22 0 28 2 40
4 28 2 -13 2 -35 0 -50z m37 30 c-9 -52 -14 -54 -14 -5 0 23 5 42 10 42 7 0 8
-14 4 -37z m45 -10 c-1 -43 -2 -45 -9 -18 l-8 30 -1 -28 c-1 -34 -21 -26 -21
9 0 13 5 24 10 24 6 0 10 7 10 15 0 8 5 15 10 15 6 0 9 -21 9 -47z m28 -20
c-2 -16 -4 -5 -4 22 0 28 2 40 4 28 2 -13 2 -35 0 -50z m50 61 c-3 -3 -12 -4
-19 -1 -8 3 -5 6 6 6 11 1 17 -2 13 -5z m43 -34 c-5 -22 -8 -27 -9 -13 -1 21
9 56 14 51 2 -2 0 -19 -5 -38z m123 32 c-6 -4 -13 -23 -15 -42 l-3 -35 -6 43
c-4 37 -2 42 16 42 12 0 16 -3 8 -8z m50 -75 c8 -6 7 -7 -3 -4 -10 2 -15 18
-16 48 -1 44 -1 44 3 4 3 -22 10 -44 16 -48z m84 51 c-3 -7 -5 -2 -5 12 0 14
2 19 5 13 2 -7 2 -19 0 -25z m40 1 c-3 -11 -1 -19 3 -19 5 0 11 8 13 18 2 9 4
0 4 -20 0 -45 -7 -48 -24 -11 -16 33 -17 67 -2 57 6 -3 9 -15 6 -25z m64 12
c6 10 9 7 8 -11 -1 -30 -17 -74 -18 -49 -1 9 -3 29 -5 45 -2 16 -1 23 1 15 4
-12 6 -12 14 0z m49 9 c-12 -8 -13 -12 -2 -19 11 -7 11 -9 -2 -14 -11 -4 -16
-1 -16 12 0 20 8 31 24 31 6 0 4 -5 -4 -10z m51 -7 c0 -15 2 -15 9 2 6 15 9 8
9 -28 1 -30 -3 -46 -9 -42 -5 3 -10 15 -10 26 0 11 -4 17 -10 14 -6 -4 -10 5
-10 19 0 29 20 36 21 9z m82 9 c-6 -4 -13 -25 -15 -47 l-3 -40 -5 48 c-5 42
-3 47 15 47 13 0 16 -3 8 -8z m41 -17 c-4 -15 -2 -25 5 -25 6 0 10 -10 10 -22
-1 -17 -2 -19 -6 -5 -6 22 -23 22 -23 0 0 -9 -2 -14 -5 -11 -9 8 7 88 16 88 5
0 7 -11 3 -25z m59 18 c-15 -6 -18 -53 -3 -53 6 0 10 -8 9 -17 0 -13 -2 -14
-6 -4 -4 10 -7 10 -13 2 -4 -7 -7 9 -8 34 -2 37 1 45 15 44 11 0 13 -3 6 -6z
m44 -25 c-3 -7 -5 -2 -5 12 0 14 2 19 5 13 2 -7 2 -19 0 -25z m51 -10 c-2 -24
-7 -43 -13 -43 -5 0 -11 19 -13 43 -3 33 0 42 13 42 13 0 16 -9 13 -42z m92
31 c0 -5 -4 -7 -10 -4 -6 4 -10 -8 -10 -30 0 -22 4 -34 10 -30 6 3 10 1 10 -5
0 -7 -6 -10 -12 -8 -14 5 -23 51 -14 74 6 16 26 19 26 3z m99 -11 c-1 -13 -5
-34 -9 -48 -7 -20 -8 -16 -9 23 -1 26 4 47 9 47 6 0 10 -10 9 -22z m17 -66
c-13 -12 -16 8 -9 49 l8 44 3 -44 c2 -23 1 -46 -2 -49z m83 71 c-1 -10 -5 -31
-9 -48 -7 -27 -8 -25 -9 18 0 26 4 47 9 47 6 0 9 -8 9 -17z m17 -71 c-13 -12
-16 8 -9 49 l8 44 3 -44 c2 -23 1 -46 -2 -49z m54 42 c0 -32 -4 -44 -12 -42
-14 5 -23 51 -14 74 11 30 26 12 26 -32z m105 1 c0 -22 -5 -40 -12 -42 -9 -3
-13 9 -13 42 0 33 4 45 13 43 7 -3 12 -21 12 -43z m58 38 c-7 -2 -19 -2 -25 0
-7 3 -2 5 12 5 14 0 19 -2 13 -5z m57 -40 c0 -31 -3 -43 -9 -34 -7 11 -9 11
-14 0 -3 -8 -6 7 -6 34 -1 35 3 47 14 47 11 0 15 -12 15 -47z m55 2 c0 -22 -5
-40 -12 -42 -8 -3 -13 4 -12 19 0 22 1 22 9 3 7 -16 9 -12 9 18 1 23 -3 36 -9
32 -5 -3 -10 -1 -10 5 0 7 6 10 13 8 7 -3 12 -21 12 -43z m53 -1 c0 -28 -4
-44 -11 -41 -6 2 -12 10 -15 18 -3 11 -1 11 8 -1 12 -16 12 -9 -6 48 -4 16 -2
22 8 22 11 0 15 -13 16 -46z m-1241 -1 c-3 -10 -5 -4 -5 12 0 17 2 24 5 18 2
-7 2 -21 0 -30z m-239 -3 c-2 -16 0 -32 6 -34 6 -2 3 -5 -8 -5 -13 -1 -16 4
-12 15 3 9 6 24 6 35 0 10 3 19 6 19 4 0 4 -13 2 -30z m939 -7 c-3 -10 -5 -4
-5 12 0 17 2 24 5 18 2 -7 2 -21 0 -30z m262 3 c-3 -3 -11 5 -18 17 -13 21
-12 21 5 5 10 -10 16 -20 13 -22z m-1132 -8 c-3 -7 -5 -2 -5 12 0 14 2 19 5
13 2 -7 2 -19 0 -25z m840 0 c-3 -8 -6 -5 -6 6 -1 11 2 17 5 13 3 -3 4 -12 1
-19z m-1100 -10 c-3 -8 -6 -5 -6 6 -1 11 2 17 5 13 3 -3 4 -12 1 -19z m500 0
c-3 -8 -6 -5 -6 6 -1 11 2 17 5 13 3 -3 4 -12 1 -19z m1000 -10 c-3 -7 -5 -2
-5 12 0 14 2 19 5 13 2 -7 2 -19 0 -25z m-1563 7 c-4 -8 -8 -15 -10 -15 -2 0
-4 7 -4 15 0 8 4 15 10 15 5 0 7 -7 4 -15z m721 -7 c6 -4 2 -8 -7 -8 -10 0
-18 7 -18 17 0 9 3 12 8 7 4 -5 12 -12 17 -16z m32 0 c-3 -8 -6 -5 -6 6 -1 11
2 17 5 13 3 -3 4 -12 1 -19z m708 2 c-3 -5 -12 -10 -18 -10 -7 0 -6 4 3 10 19
12 23 12 15 0z"/>
<path d="M1693 2202 l-73 -3 0 -34 c0 -19 5 -35 10 -35 6 -1 56 -1 113 -1
l102 -1 3 39 3 38 -43 0 c-24 0 -76 -1 -115 -3z m135 -34 c-6 -18 -28 -21 -28
-4 0 9 7 16 16 16 9 0 14 -5 12 -12z"/>
<path d="M1622 2043 l3 -48 113 -3 112 -3 0 51 0 50 -116 0 -115 0 3 -47z
m206 -11 c2 -7 -3 -12 -12 -12 -9 0 -16 7 -16 16 0 17 22 14 28 -4z"/>
<path d="M1620 1920 l0 -40 115 0 115 0 0 40 0 40 -115 0 -115 0 0 -40z m208
-1 c-2 -6 -8 -10 -13 -10 -5 0 -11 4 -13 10 -2 6 4 11 13 11 9 0 15 -5 13 -11z"/>
<path d="M839 1523 c-6 -16 -9 -79 -7 -150 3 -129 13 -158 43 -133 12 10 15
37 15 142 0 123 -8 168 -31 168 -5 0 -14 -12 -20 -27z"/>
<path d="M1440 1474 c0 -62 1 -65 23 -62 20 3 22 9 25 66 3 61 2 62 -23 62
-24 0 -25 -2 -25 -66z"/>
<path d="M1662 1541 c-16 -10 -19 -288 -3 -304 5 -5 17 -7 25 -4 14 5 16 29
16 150 0 147 -7 177 -38 158z"/>
<path d="M2390 1536 c-7 -9 -10 -64 -8 -157 3 -136 4 -144 23 -144 19 0 20 8
23 151 2 125 0 153 -12 157 -8 3 -19 0 -26 -7z"/>
<path d="M843 1025 c0 -22 2 -30 4 -17 2 12 2 30 0 40 -3 9 -5 -1 -4 -23z"/>
<path d="M1933 1025 c0 -22 2 -30 4 -17 2 12 2 30 0 40 -3 9 -5 -1 -4 -23z"/>
<path d="M2293 1025 c0 -22 2 -30 4 -17 2 12 2 30 0 40 -3 9 -5 -1 -4 -23z"/>
<path d="M2403 1025 c0 -22 2 -30 4 -17 2 12 2 30 0 40 -3 9 -5 -1 -4 -23z"/>
<path d="M2512 1035 c0 -16 2 -22 5 -12 2 9 2 23 0 30 -3 6 -5 -1 -5 -18z"/>
</g>
</svg>
